<?xml version="1.0" standalone="no"?>
<!DOCTYPE svg PUBLIC "-//W3C//DTD SVG 20010904//EN"
 "http://www.w3.org/TR/2001/REC-SVG-20010904/DTD/svg10.dtd">
<svg version="1.0" xmlns="http://www.w3.org/2000/svg"
 width="128.000000pt" height="128.000000pt" viewBox="0 0 128.000000 128.000000"
 preserveAspectRatio="xMidYMid meet">
<metadata>
Created by potrace 1.14, written by Peter Selinger 2001-2017
</metadata>
<g transform="translate(0.000000,128.000000) scale(0.100000,-0.100000)"
fill="#000000" stroke="none">
<path d="M517 1249 c-208 -42 -384 -190 -457 -387 -29 -76 -35 -120 -34 -232
1 -167 56 -293 183 -421 128 -127 271 -182 457 -175 206 8 378 107 494 288 36
55 75 151 86 212 35 193 -30 400 -169 540 -40 40 -94 86 -121 101 -137 79
-288 105 -439 74z m256 -129 c169 -50 302 -192 342 -365 33 -141 6 -270 -84
-405 -9 -12 -24 -1 -85 59 -73 72 -75 76 -58 94 21 24 32 177 12 177 -9 0 -10
3 -1 13 6 8 14 46 17 84 9 98 -13 161 -78 226 -125 125 -277 133 -428 22 -47
-34 -47 -34 -65 -15 -10 11 -16 22 -14 24 38 33 167 89 229 100 41 6 172 -2
213 -14z m-457 -288 c1 -67 10 -137 19 -152 3 -4 -1 -10 -9 -13 -12 -5 -12
-16 -2 -69 16 -81 32 -111 56 -105 11 3 21 -1 24 -10 10 -25 7 -210 -4 -238
l-10 -27 -38 28 c-91 68 -165 178 -193 284 -29 113 -4 267 62 376 l33 54 31
-30 c27 -27 30 -37 31 -98z m578 -511 l58 -58 -49 -30 c-52 -31 -137 -68 -130
-56 5 8 14 56 23 121 3 26 29 82 38 82 1 0 28 -26 60 -59z"/>
</g>
</svg>
